<svg width="152.234" height="73.865" viewBox="0 0 152.234 73.865" xmlns="http://www.w3.org/2000/svg"><g id="svgGroup" stroke-linecap="round" fill-rule="nonzero" font-size="9pt" stroke="#000000" stroke-width="0.5" fill="#3584e4" style="stroke:#000000;stroke-width:0.5;fill:#3584e4"><path d="M 75 51.453 L 75 60.974 L 40.65 60.974 A 15.27 15.27 0 0 1 36.328 60.278 A 12.709 12.709 0 0 1 31.989 57.99 A 12.836 12.836 0 0 1 28.656 53.851 A 13.302 13.302 0 0 1 27.319 47.607 L 27.319 13.257 A 4.807 4.807 0 0 1 27.686 11.389 A 4.87 4.87 0 0 1 28.693 9.851 A 4.516 4.516 0 0 1 30.213 8.826 A 4.902 4.902 0 0 1 32.117 8.46 L 75 8.46 L 75 17.981 L 36.841 17.981 L 36.841 47.607 A 3.867 3.867 0 0 0 37.83 50.464 A 3.921 3.921 0 0 0 40.723 51.453 L 75 51.453 Z M 19.885 0 L 19.885 9.522 L 9.705 9.522 L 9.558 59.985 L 19.739 59.985 L 19.739 69.617 L 4.834 69.617 A 4.521 4.521 0 0 1 3.003 69.232 A 5.447 5.447 0 0 1 1.428 68.189 Q 0.769 67.493 0.385 66.614 A 4.521 4.521 0 0 1 0 64.783 L 0 4.724 A 4.308 4.308 0 0 1 0.403 2.875 Q 0.806 2.014 1.465 1.373 A 4.818 4.818 0 0 1 3.021 0.366 Q 3.919 0 4.907 0 L 19.885 0 Z M 152.234 4.724 L 152.234 64.783 A 4.521 4.521 0 0 1 151.849 66.614 A 5.447 5.447 0 0 1 150.806 68.189 Q 150.11 68.848 149.249 69.232 A 4.394 4.394 0 0 1 147.437 69.617 L 132.495 69.617 L 132.495 59.985 L 142.639 59.985 L 142.529 9.522 L 132.349 9.522 L 132.349 0 L 147.29 0 Q 148.279 0 149.176 0.366 Q 150.073 0.732 150.751 1.373 A 4.914 4.914 0 0 1 151.831 2.875 A 4.308 4.308 0 0 1 152.234 4.724 Z M 125.134 65.332 L 125.134 73.865 L 83.276 73.865 L 83.276 65.332 L 125.134 65.332 Z M 70.715 29.919 L 70.715 39.514 L 40.65 39.514 L 40.65 29.919 L 70.715 29.919 Z"/></g></svg>